<svg width="3400" height="2452" viewBox="0 0 3400 2452" fill="none" xmlns="http://www.w3.org/2000/svg">
<path d="M304.101 1946.53V1945.48C313.382 1924.52 336.138 1910.3 359.043 1911.34C381.349 1912.24 406.201 1925.57 424.016 1912.24C434.346 1904.61 437.939 1890.38 448.418 1883.05C468.18 1869.12 494.079 1887.69 517.882 1889.18C538.692 1890.53 558.303 1878.4 579.113 1876.91C611.599 1874.36 641.99 1897.27 674.326 1893.68C712.502 1889.33 737.054 1850.4 772.534 1835.28C805.62 1821.21 843.496 1829.44 878.078 1839.02C878.976 1839.17 879.575 1839.47 880.324 1839.62L885.264 1843.07C941.704 1880.5 1007.28 1901.61 1072.1 1920.63C1092.01 1926.47 1112.37 1932.01 1133.03 1931.71C1153.54 1931.41 1175.1 1923.92 1187.97 1907.75C1198.6 1894.57 1202.19 1877.36 1205.34 1860.59L1209.83 1860.88C1208.93 1870.77 1208.18 1880.65 1207.73 1890.38C1207.13 1901.91 1206.54 1913.59 1208.33 1924.97C1212.67 1954.17 1232.14 1980.22 1258.33 1993.1H1258.18C1161.92 2119.47 1058.33 2251.23 910.265 2308.28C872.09 2322.96 831.818 2332.24 791.248 2339.13C644.086 2363.53 491.384 2353.95 348.114 2311.43C271.764 2288.97 197.359 2256.48 134.333 2207.96C117.565 2195.09 101.098 2180.26 93.1632 2160.8C85.2287 2141.03 88.3725 2115.58 105.439 2103.15L108.284 2102.7C106.188 2096.26 105.439 2089.52 106.637 2082.79C108.583 2072.46 114.422 2063.47 121.308 2055.69C136.878 2038.17 159.633 2025.44 182.838 2025.44L197.21 2023.64C198.258 2009.12 199.755 1993.4 209.186 1982.17C212.779 1977.68 217.57 1974.23 222.36 1970.94C246.763 1954.92 275.357 1943.24 303.951 1946.38L304.101 1946.53Z" fill="#F9D379"/>
<path d="M2520.81 1295.8C2558.24 1307.78 2589.38 1335.93 2610.34 1369.32C2631.6 1403.31 2642.97 1442.38 2649.86 1481.61C2675.01 1625.51 2640.43 1774.04 2582.94 1908.35C2512.58 2072.6 2408.38 2220.84 2286.82 2352C2270.95 2369.22 2253.89 2386.74 2232.03 2395.57C2210.32 2404.56 2182.33 2402.31 2167.06 2384.64C2144.75 2358.89 2159.72 2319.21 2175.44 2289.12V2283.43C2157.17 2279.23 2143.7 2262.61 2138.76 2244.5C2133.82 2226.23 2135.92 2207.06 2140.11 2188.65C2148.19 2153.46 2162.71 2119.77 2183.07 2089.82V2088.03C2179.78 2086.38 2176.94 2083.53 2175.29 2080.24C2171.85 2073.65 2172.14 2065.72 2173.04 2058.08C2176.49 2028.28 2185.92 1999.69 2195.35 1971.24C2206.28 1938.15 2218.55 1903.11 2245.95 1881.55L2246.85 1880.05C2243.26 1878.4 2240.56 1874.81 2239.21 1870.77C2237.87 1866.12 2238.02 1861.33 2238.17 1856.69C2239.96 1818.66 2244.6 1777.93 2269.6 1749.03C2270.8 1747.54 2272.6 1746.19 2274.4 1745.59C2255.53 1727.77 2248.94 1698.13 2258.53 1673.87C2259.42 1672.82 2260.17 1671.77 2261.07 1670.73L2283.53 1644.67C2346.1 1568.76 2387.57 1475.48 2402.39 1378.3L2403.89 1363.63C2407.33 1358.24 2405.39 1350.45 2401.05 1345.51L2400.6 1345.06C2411.53 1342.96 2421.26 1335.03 2425.3 1324.55L2433.68 1313.02C2434.73 1310.92 2435.48 1308.67 2436.38 1306.43L2442.97 1308.53C2465.12 1311.22 2488.78 1310.77 2507.94 1299.39C2523.06 1290.41 2533.54 1275.58 2540.87 1259.71C2535.93 1272.29 2529.2 1284.12 2520.96 1294.9L2520.66 1295.8H2520.81Z" fill="#F9D379"/>
<path d="M2596.28 1277.98L2592.69 1278.58C2584.3 1282.92 2574.12 1286.97 2565.44 1283.22C2560.8 1281.28 2557.21 1277.09 2554.36 1272.59C2550.02 1265.86 2546.73 1258.07 2545.08 1249.98C2550.17 1237.11 2553.61 1223.48 2557.81 1210.3C2570.83 1168.23 2589.84 1127.65 2618.29 1094.11C2646.58 1060.72 2684.61 1034.37 2727.42 1024.49C2754.67 1018.35 2782.82 1018.8 2810.81 1019.4L2811.41 1024.34C2808.41 1024.64 2805.57 1024.94 2802.58 1025.39L2800.48 1031.08C2866.35 1054.14 2915.61 1111.48 2943.45 1175.27C2971.45 1239.35 2980.13 1310.03 2985.97 1379.65C2997.64 1521.9 2994.95 1676.12 2911.26 1791.71C2899.59 1807.73 2885.81 1823.31 2867.25 1830.34C2848.69 1837.08 2824.58 1832.29 2815 1815.07C2810.06 1806.24 2809.31 1795.9 2809.91 1785.72C2810.21 1773.59 2811.86 1761.62 2814.7 1749.79L2805.27 1747.69C2781.47 1727.93 2766.05 1698.43 2763.5 1667.58C2760.81 1637.19 2771.14 1605.75 2791.05 1582.54L2790.75 1582.24C2777.13 1583.14 2762.16 1583.29 2751.98 1574.15C2742.84 1566.22 2740.6 1553.34 2739.25 1541.21C2734.91 1501.98 2737.6 1462.6 2740.45 1423.22H2737C2722.48 1425.92 2707.06 1419.18 2696.73 1408.4C2686.4 1397.62 2681.01 1383.09 2678.62 1368.27C2676.37 1354.35 2676.82 1340.27 2677.27 1326.2H2672.33C2664.85 1333.98 2653.92 1338.92 2642.99 1338.92C2638.95 1339.07 2635.2 1338.62 2631.61 1337.28C2623.68 1334.28 2617.69 1327.69 2612.15 1321.41C2608.56 1317.06 2604.66 1312.87 2602.57 1307.63C2600.92 1304.04 2600.32 1299.99 2599.57 1296.25C2598.53 1290.26 2597.48 1284.27 2596.43 1278.43L2596.28 1277.98Z" fill="#F9D379"/>
<path d="M3130.73 923.114V930.75C3130.88 950.814 3115.46 966.985 3101.09 980.91C3086.57 994.985 3071.9 1009.06 3054.53 1019.09C3037.17 1029.42 3016.51 1035.11 2996.74 1031.22C2981.17 1028.08 2967.4 1019.09 2952.43 1015.05C2933.57 1009.81 2913.51 1012.05 2894.19 1014.45L2811.26 1024.33L2810.66 1019.39C2782.66 1018.94 2754.52 1018.34 2727.27 1024.48C2684.6 1034.36 2646.43 1060.72 2618.13 1094.11C2589.84 1127.65 2570.83 1168.22 2557.65 1210.3C2553.46 1223.47 2550.02 1237.1 2544.93 1249.98C2544.93 1249.83 2544.78 1249.68 2544.78 1249.53C2543.73 1252.82 2542.68 1255.97 2541.19 1259.11C2541.19 1259.26 2541.04 1259.41 2541.04 1259.56C2533.7 1275.43 2523.22 1290.4 2508.1 1299.24C2488.94 1310.62 2465.28 1310.92 2443.13 1308.37L2436.54 1306.28C2445.07 1283.07 2443.88 1257.31 2442.98 1232.31C2438.79 1130.49 2439.53 1028.52 2445.52 926.558C2446.12 912.034 2447.17 897.36 2448.22 882.836C2449.56 864.719 2451.06 846.152 2460.34 830.58C2483.4 791.8 2545.53 785.211 2559.45 742.238L2579.21 715.586C2579.21 712.142 2579.21 708.699 2579.06 705.105H2581.31C2618.58 630.988 2657.66 554.625 2720.98 501.021C2768.44 460.744 2828.77 435.439 2890.75 431.546C2952.43 427.503 3015.91 445.321 3065.31 482.604C3082.68 472.123 3105.73 470.626 3123.25 480.957C3129.38 484.551 3134.77 489.492 3140.01 494.583C3160.67 515.395 3176.24 541.748 3184.18 570.197L3187.32 569.149C3216.51 602.539 3242.86 638.325 3266.37 675.908C3284.93 705.854 3301.85 737.747 3307.69 772.484C3313.82 807.222 3307.39 845.703 3283.88 871.906C3263.22 895.264 3232.08 906.344 3201.69 913.381C3178.49 918.772 3154.69 922.365 3130.88 923.114H3130.73Z" fill="#F9D379"/>
<path d="M2430.23 627.845L2429.78 618.861C2456.58 605.984 2488.32 602.69 2516.31 612.423C2544.31 622.155 2567.96 645.513 2575.45 674.112C2578.14 684.144 2578.74 694.625 2578.74 705.106C2578.89 708.55 2578.89 711.994 2578.89 715.587L2559.13 742.24C2545.21 785.212 2482.93 791.95 2460.02 830.581C2450.74 846.153 2449.24 864.87 2447.9 882.837C2446.85 897.361 2445.95 912.035 2445.2 926.559H2444.3C2400.89 903.201 2348.19 897.811 2300.74 911.736C2289.21 915.179 2277.83 919.671 2268.25 926.858C2265.7 928.655 2263.46 930.452 2261.06 932.698L2251.33 925.81C2239.95 887.629 2244.74 845.854 2259.12 808.72C2273.49 771.437 2297.14 738.646 2323.79 708.999C2353.88 675.609 2388.76 645.363 2429.93 627.845H2430.23Z" fill="#822A17"/>
<path d="M2220.8 1283.97C2219.9 1284.42 2219.3 1285.17 2218.55 1285.77L2216.45 1282.92C2200.74 1228.12 2190.26 1171.22 2192.65 1114.18C2195.05 1057.13 2210.77 999.93 2243.7 953.514C2248.94 945.877 2254.78 938.69 2261.52 932.551C2263.76 930.455 2266.16 928.508 2268.7 926.712C2278.28 919.525 2289.51 915.182 2301.19 911.589C2348.5 897.664 2401.34 903.204 2444.76 926.412H2445.66C2439.67 1028.38 2439.07 1130.35 2443.11 1232.16C2444.01 1257.17 2445.21 1282.92 2436.67 1306.13C2435.78 1308.38 2435.03 1310.62 2433.98 1312.72L2425.6 1324.25C2421.55 1334.73 2411.82 1342.67 2400.89 1344.76C2396.4 1340.12 2390.41 1337.27 2384.73 1335.03C2332.63 1312.57 2279.33 1289.66 2222.59 1285.32L2221.25 1283.67L2220.8 1283.97Z" fill="#822A17"/>
<path d="M2401.04 1345.51C2405.38 1350.3 2407.33 1358.08 2403.88 1363.62L2402.39 1378.3C2387.72 1475.47 2346.1 1568.61 2283.52 1644.67L2261.06 1670.72C2260.17 1671.77 2259.42 1672.82 2258.52 1673.87C2216.45 1729.87 2163.16 1777.18 2102.82 1812.52C2093.24 1818.36 2082.91 1823.75 2071.83 1824.8C2067.49 1825.1 2062.85 1824.65 2058.81 1823.3V1822.7C2058.21 1815.51 2052.22 1810.27 2047.13 1805.18C2044.59 1802.94 2042.34 1800.39 2040.25 1797.85C2015.24 1770.74 1999.68 1735.71 1984.7 1701.87C1977.07 1684.5 1969.43 1667.28 1961.65 1650.06C1953.12 1630.3 1944.28 1609.63 1946.53 1588.37C1947.13 1582.98 1948.48 1577.59 1950.27 1572.5C1955.96 1557.23 1966.29 1543.6 1976.62 1530.43C1989.2 1514.25 2001.62 1497.93 2014.2 1481.76C2034.41 1455.71 2054.62 1429.81 2076.92 1405.85C2119.29 1360.48 2168.99 1323.05 2218.55 1286.06C2219.45 1285.46 2220.04 1284.72 2220.79 1284.27L2222.14 1285.91C2278.88 1290.26 2332.17 1313.02 2384.27 1335.62C2390.11 1337.87 2395.95 1340.72 2400.44 1345.36L2400.89 1345.81L2401.04 1345.51Z" fill="#822A17"/>
<path d="M1946.38 1588.22C1944.13 1609.63 1952.82 1630.3 1961.5 1649.91C1969.28 1667.13 1976.92 1684.35 1984.55 1701.72C1999.67 1735.71 2015.24 1770.59 2040.1 1797.7L2036.35 1801.29C2013.3 1858.34 1952.97 1889.63 1895.63 1912.24C1836.49 1935.45 1775.56 1954.31 1713.73 1968.54C1695.17 1972.73 1676.31 1976.62 1657.44 1973.93C1638.73 1971.38 1620.02 1961.2 1612.08 1944.13L1607.59 1943.08C1607.59 1943.08 1607.29 1944.28 1607.14 1944.88C1581.84 1866.12 1563.58 1784.97 1553.4 1702.77C1615.53 1660.54 1679.3 1617.42 1752.51 1600.2C1812.54 1586.12 1876.17 1590.17 1935.6 1573.25H1936.65L1950.42 1572.2C1948.62 1577.29 1947.28 1582.68 1946.68 1588.07L1946.38 1588.22Z" fill="#822A17"/>
<path d="M1553.42 1702.92C1563.75 1785.12 1581.87 1866.27 1607.17 1945.03C1603.87 1960.46 1599.23 1976.18 1588.15 1987.11C1576.63 1998.64 1559.86 2003.28 1543.84 2006.87C1451.77 2026.34 1354.76 2021.99 1264.94 1994.14L1264.04 1995.94C1262.09 1995.04 1260.29 1994.29 1258.35 1993.25C1232.15 1980.37 1212.69 1954.17 1208.35 1925.12C1206.55 1913.74 1207 1902.06 1207.75 1890.53C1208.2 1880.8 1209.09 1871.07 1209.84 1861.03C1213.14 1820.46 1218.38 1780.03 1225.71 1739.9C1226.16 1736.16 1227.06 1732.12 1229.16 1728.82C1229.31 1728.37 1229.6 1727.62 1230.05 1727.17C1232.9 1722.98 1237.54 1720.59 1242.03 1718.19C1263.44 1707.11 1285.3 1696.63 1307.45 1686.9C1327.66 1677.91 1348.62 1669.38 1370.78 1668.33C1385 1667.73 1399.07 1670.13 1413.15 1672.67C1459.56 1680.61 1505.81 1688.54 1552.22 1696.78C1552.52 1697.83 1552.67 1698.87 1553.12 1699.92V1701.12C1553.12 1701.12 1553.27 1702.32 1553.42 1702.92V1702.92Z" fill="#822A17"/>
<path d="M1119.58 1635.24C1166.29 1650.36 1208.8 1682.7 1227.52 1727.77L1229.31 1728.82C1227.22 1732.12 1226.32 1736.16 1225.87 1739.9C1218.53 1780.18 1213.29 1820.46 1210 1861.03L1205.51 1860.73C1202.36 1877.5 1198.77 1894.72 1188.14 1907.9C1175.27 1924.07 1153.71 1931.56 1133.2 1931.86C1112.54 1932.16 1092.18 1926.62 1072.27 1920.78C1007.45 1901.76 941.874 1880.5 885.435 1843.22L880.494 1839.77C879.596 1839.62 878.997 1839.32 878.249 1839.17L879.446 1834.83C873.758 1830.34 869.715 1823.9 868.368 1816.71C866.422 1805.78 869.416 1792.01 860.434 1785.57L865.374 1784.07C894.866 1740.35 924.059 1696.63 953.551 1653.21C958.941 1644.97 964.63 1636.59 972.415 1630.3V1628.65C1021.22 1621.31 1071.82 1620.27 1118.68 1634.94C1118.98 1635.09 1119.28 1635.09 1119.73 1635.24H1119.58Z" fill="#822A17"/>
<path d="M970.16 1627.45L972.406 1628.65V1630.3C964.471 1636.59 958.782 1644.82 953.393 1653.21C923.9 1696.78 894.707 1740.5 865.215 1784.07L860.275 1785.57C856.981 1783.02 852.64 1782.42 848.598 1781.97C833.777 1780.18 818.656 1779.73 804.135 1775.69C780.331 1768.95 759.821 1753.08 743.653 1734.21C727.485 1715.34 715.209 1693.63 703.082 1671.92V1669.38C702.483 1667.73 701.735 1666.23 701.286 1664.59C688.561 1633.44 678.231 1601.4 670.446 1568.76C666.254 1551.54 662.811 1533.87 665.656 1516.5C668.35 1499.13 678.381 1482.06 694.399 1475.18C707.274 1469.79 722.095 1471.43 735.868 1471.43C780.182 1471.88 828.088 1457.06 866.563 1479.07C889.468 1492.1 903.84 1515.6 917.014 1538.36C934.679 1568.16 952.494 1597.96 970.01 1627.75L970.16 1627.45Z" fill="#822A17"/>
<path d="M1227.5 1727.77C1208.79 1682.7 1166.27 1650.36 1119.56 1635.24C1115.22 1439.24 1110.73 1243.09 1106.39 1047.09C1106.09 1030.92 1105.34 1014 1097.85 999.627L1101.3 995.135C1103.24 996.782 1105.34 998.429 1107.44 999.926C1127.95 1014.45 1153.55 1019.84 1178.25 1024.63C1242.77 1036.91 1307.44 1047.84 1372.42 1057.42L1373.02 1057.12C1373.02 1057.12 1373.17 1057.42 1373.17 1057.57C1385.74 1086.77 1393.98 1117.32 1402.51 1147.86C1452.36 1330.98 1502.51 1513.8 1552.37 1696.93C1505.96 1688.69 1459.7 1680.75 1413.29 1672.82C1399.22 1670.27 1385.14 1667.88 1370.92 1668.48C1348.76 1669.52 1327.66 1678.06 1307.59 1687.04C1285.44 1696.78 1263.58 1707.26 1242.17 1718.34C1237.68 1720.58 1233.04 1723.13 1230.2 1727.32C1229.9 1727.77 1229.6 1728.52 1229.3 1728.97L1227.5 1727.92V1727.77Z" fill="#822A17"/>
<path d="M761.456 1394.02L761.905 1393.43C785.858 1198.03 875.383 1012.66 1009.22 868.467L1020.45 878.799C1034.82 901.408 1049.19 924.317 1063.71 947.226C1074.64 964.445 1085.87 982.113 1101.29 995.29L1097.85 999.782C1105.48 1014.16 1106.08 1031.08 1106.38 1047.25C1110.87 1243.24 1115.36 1439.39 1119.56 1635.39C1119.26 1635.24 1118.96 1635.24 1118.51 1635.09C1071.65 1620.42 1021.05 1621.47 972.393 1628.8L970.148 1627.61C952.632 1597.81 934.967 1568.01 917.152 1538.22C903.977 1515.61 889.456 1492.1 866.7 1478.92C828.076 1456.91 780.319 1471.73 736.006 1471.29C722.083 1471.29 707.412 1469.64 694.537 1475.03C678.518 1481.92 668.338 1498.99 665.793 1516.35C662.949 1533.72 666.392 1551.39 670.584 1568.61C678.369 1601.25 688.698 1633.3 701.424 1664.44L699.627 1665.04C628.516 1642.73 561.597 1608.44 498.271 1569.36C466.383 1549.6 434.645 1528.33 410.393 1499.73C399.464 1487.16 389.733 1471.29 392.278 1454.82C395.721 1433.85 422.369 1419.33 441.232 1430.86C445.275 1404.81 473.12 1385.19 499.019 1390.28C509.499 1392.23 519.23 1397.77 530.009 1398.07C553.363 1398.67 571.777 1374.86 594.982 1374.11C605.761 1373.81 615.941 1378.45 626.57 1380.85C649.176 1386.24 672.979 1381.45 696.184 1379.5C718.79 1377.7 744.09 1379.35 761.606 1393.87L761.456 1394.02Z" fill="#822A17"/>
<path d="M1514.64 574.839L1518.08 585.47C1501.31 665.876 1499.37 749.276 1512.69 830.43L1510 834.174C1468.23 910.986 1422.57 985.402 1373.16 1057.42C1373.16 1057.27 1373.01 1057.12 1373.01 1056.97L1372.41 1057.27C1307.59 1047.69 1242.77 1036.76 1178.24 1024.48C1153.54 1019.69 1127.94 1014.45 1107.43 999.776C1105.34 998.279 1103.24 996.632 1101.29 994.985C1085.87 981.958 1074.65 964.14 1063.72 946.921C1049.35 924.012 1034.97 901.253 1020.45 878.494L1009.22 868.163C1079.74 791.8 1162.82 727.116 1255.04 678.603C1337.68 634.881 1426.16 604.186 1514.79 574.539L1514.64 574.839Z" fill="#822A17"/>
<path d="M1793.68 924.911H1792.33C1696.52 903.649 1608.34 855.885 1513.28 830.73L1512.68 830.431C1499.5 749.276 1501.45 665.876 1518.07 585.47L1514.62 574.839L1516.12 574.39C1578.25 553.727 1640.68 533.363 1705.2 520.936C1783.95 505.813 1864.79 502.669 1945.03 504.914C1973.78 505.813 2002.82 507.011 2031.71 509.556L2031.26 517.192C1984.1 600.892 1982.01 701.961 1981.11 798.089L1981.71 801.682C1924.37 848.997 1861.94 890.024 1795.77 923.863C1795.17 924.312 1794.28 924.761 1793.68 925.061V924.911Z" fill="#822A17"/>
<path d="M2430.24 627.847C2389.22 645.365 2354.33 675.461 2324.09 709.001C2297.45 738.648 2273.79 771.439 2259.42 808.722C2245.05 845.856 2240.26 887.481 2251.64 925.812L2261.37 932.7C2254.63 938.839 2248.79 946.176 2243.55 953.662C2210.62 1000.23 2194.9 1057.43 2192.5 1114.32C2190.11 1171.22 2200.58 1228.27 2216.3 1283.07L2218.4 1285.92C2168.7 1323.05 2119.14 1360.33 2076.78 1405.7C2054.47 1429.66 2034.26 1455.71 2014.05 1481.62C2001.47 1497.79 1989.05 1514.11 1976.47 1530.28C1966.14 1543.3 1955.81 1557.08 1950.12 1572.35L1936.35 1573.4C1910.9 1517.85 1891.74 1459.6 1875.42 1400.91C1866.59 1369.62 1858.8 1338.02 1851.92 1306.43C1824.22 1180.8 1810.15 1052.63 1796.08 924.764L1795.63 923.866C1861.65 890.027 1924.23 849 1981.56 801.685L1980.96 798.091C1981.86 701.964 1983.96 600.895 2031.12 517.195L2031.57 509.559C2169.6 520.489 2306.43 551.334 2426.49 618.863H2429.64L2430.09 627.997L2430.24 627.847Z" fill="#822A17"/>
<path d="M1875.58 1400.9C1891.74 1459.6 1911.06 1517.84 1936.51 1573.39H1935.46C1876.02 1590.31 1812.55 1586.27 1752.37 1600.35C1679.16 1617.57 1615.38 1660.84 1553.26 1702.91C1553.11 1702.31 1552.96 1701.71 1552.96 1701.12V1699.92C1552.66 1698.87 1552.51 1697.82 1552.06 1696.77C1502.21 1513.65 1452.05 1330.83 1402.2 1147.71C1393.82 1117.31 1385.43 1086.62 1372.86 1057.72C1422.41 985.549 1468.07 910.983 1509.69 834.32L1512.39 830.577L1512.98 830.877C1608.05 856.031 1696.23 903.946 1792.04 925.207H1793.39C1793.39 925.207 1794.88 924.309 1795.48 923.86L1795.93 924.758C1810 1052.78 1824.08 1180.8 1851.77 1306.42C1858.66 1338.02 1866.44 1369.61 1875.28 1400.9H1875.58Z" fill="#822A17"/>
<path d="M712.03 1461.7C695.562 1474.28 676.1 1484.91 667.117 1503.47C658.883 1520.54 661.129 1540.76 664.872 1559.32C672.058 1595.56 683.735 1630.9 699.304 1664.44C649.602 1645.42 599.749 1626.4 552.292 1602.15C504.835 1577.89 459.773 1548.24 422.646 1510.06C412.016 1499.13 401.687 1486.85 397.944 1472.03C394.201 1457.21 399.142 1439.24 412.615 1432.2C420.699 1428.01 430.73 1428.16 438.664 1423.52C444.952 1419.92 449.293 1413.64 454.383 1408.54C464.414 1398.51 478.337 1392.52 492.409 1391.92C498.098 1391.77 503.937 1392.37 508.727 1395.37C513.518 1398.36 530.135 1392.67 529.686 1398.21C559.328 1399.71 568.61 1377.55 598.252 1377.4C614.87 1377.4 630.14 1387.88 646.757 1388.78C662.177 1389.53 676.549 1382.04 691.669 1378.75C704.844 1375.9 718.766 1376.5 731.641 1380.39C741.222 1383.24 758.289 1388.63 759.786 1400.31C761.283 1411.24 748.408 1424.72 742.121 1432.5C733.288 1443.43 723.108 1453.31 712.03 1461.85V1461.7Z" fill="#F9D379"/>
<path opacity="0.51" d="M2224.56 828.637C2176.65 821.45 2129.04 811.867 2082.19 799.739C2068.11 796.145 2052.69 791.204 2045.06 778.776C2037.87 767.097 2039.82 752.274 2042.06 738.798C2047 708.702 2051.79 678.456 2056.74 648.36C2061.23 620.81 2067.96 589.815 2091.92 575.591C2111.83 563.912 2136.83 567.955 2159.43 573.046C2195.81 581.281 2232.04 591.163 2267.52 602.543C2279.5 606.436 2316.48 612.425 2323.66 622.457C2333.09 635.783 2317.08 644.018 2307.94 654.05C2263.78 702.264 2233.99 763.803 2224.56 828.637Z" fill="#AB7246"/>
<path opacity="0.51" d="M1671.96 575.142C1643.52 582.179 1612.83 590.714 1595.01 614.072C1580.19 633.537 1577.35 659.291 1575.1 683.547C1571.36 724.125 1570.61 771.889 1602.5 797.044C1626 815.61 1659.24 814.712 1687.08 825.942C1718.52 838.519 1745.32 867.118 1779.3 865.77C1800.41 864.872 1818.97 852.145 1836.19 839.867C1865.53 818.904 1896.07 796.744 1912.24 764.402C1918.38 751.975 1922.27 738.649 1926.01 725.322C1938.14 682.35 1950.27 639.377 1962.39 596.553C1965.39 586.072 1982.9 546.992 1977.36 537.709C1970.48 526.03 1934.1 531.72 1922.42 532.019C1880.05 533.067 1838.14 538.907 1796.52 546.843C1757.89 554.179 1711.03 575.292 1672.11 575.292L1671.96 575.142Z" fill="#AB7246"/>
<path opacity="0.51" d="M1455.66 632.191C1430.66 697.175 1428.26 770.693 1449.07 837.024C1426.47 882.393 1402.81 917.729 1380.21 963.098C1374.52 974.627 1367.93 987.055 1356.1 992.445C1345.62 997.237 1333.5 995.29 1322.27 993.343C1262.24 982.713 1202.2 972.082 1142.17 961.451C1125.26 918.178 1118.22 873.109 1116.57 826.842C1218.97 742.693 1331.4 678.608 1455.51 632.191H1455.66Z" fill="#AB7246"/>
<path opacity="0.51" d="M991.086 936.594C895.124 1078.54 827.906 1239.8 794.82 1407.95C834.792 1401.36 875.513 1420.38 904.855 1448.38C934.198 1476.38 953.959 1512.46 973.421 1548.1C1005.91 1555.43 1038.39 1555.73 1071.63 1553.79L1061.15 1072.25C1069.08 1045.6 1061.3 1014.45 1045.88 991.395C1030.46 968.337 1012.64 954.412 991.086 936.893V936.594Z" fill="#AB7246"/>
<path opacity="0.51" d="M1152.81 1050.69C1180.35 1237.25 1186.79 1426.96 1171.82 1614.88C1204.75 1625.21 1235.44 1640.48 1253.56 1669.98C1316.74 1621.46 1408.96 1603.65 1479.32 1640.93C1449.53 1460.8 1409.55 1284.27 1348.92 1112.08C1286.79 1086.92 1219.43 1058.62 1152.81 1050.84V1050.69Z" fill="#AB7246"/>
<path opacity="0.51" d="M1531.99 884.635C1506.68 953.512 1471.95 1018.94 1429.14 1078.69C1494.86 1255.67 1546.06 1438.94 1585.43 1623.56C1657.74 1552.74 1764.03 1527.43 1863.59 1546C1824.96 1361.38 1787.98 1172.72 1749.36 988.1C1677.8 960.549 1596.81 925.362 1531.99 884.635V884.635Z" fill="#AB7246"/>
<path opacity="0.51" d="M2002.52 844.658C1953.72 885.385 1901.17 921.62 1845.78 952.764C1877.22 1131.09 1908.51 1311.22 1950.87 1487.16C2001.02 1397.02 2083.96 1317.81 2176.93 1273.04C2161.21 1218.09 2141.15 1160.89 2140.25 1103.84C2139.35 1046.8 2155.52 987.053 2195.64 946.326C2137.71 901.107 2075.28 855.888 2002.52 844.658V844.658Z" fill="#AB7246"/>
<path opacity="0.51" d="M2397.47 940.942C2363.49 928.065 2323.52 938.996 2296.12 962.803C2268.72 986.61 2252.7 1021.35 2245.07 1056.83C2237.43 1092.32 2237.58 1129 2237.73 1165.24C2237.73 1189.35 2238.93 1215.85 2255.7 1233.22C2271.27 1249.39 2295.67 1252.38 2317.68 1257.17C2339.68 1261.97 2364.09 1272.6 2370.08 1294.31C2386.09 1284.28 2398.37 1260.47 2402.56 1242.05C2406.75 1223.64 2406.15 1204.32 2405.41 1185.45C2402.56 1107.59 2400.32 1019.1 2397.47 941.242V940.942Z" fill="#AB7246"/>
<path opacity="0.51" d="M2126.19 1749.34C2116.91 1757.12 2106.28 1765.06 2094.3 1764.01C2079.33 1762.66 2069.45 1748.14 2061.97 1735.11C2035.32 1689 2007.62 1637.49 2018.25 1585.38C2023.94 1557.38 2040.26 1532.68 2057.32 1509.77C2088.91 1467.54 2124.54 1428.16 2163.62 1392.68C2192.51 1366.47 2224.7 1341.47 2262.72 1333.23C2294.01 1326.5 2339.82 1334.28 2360.63 1361.38C2381.44 1388.48 2360.18 1424.27 2348.51 1450.92C2316.62 1523.84 2274.1 1592.12 2222.75 1652.91C2193.26 1687.65 2160.92 1719.99 2126.04 1749.34H2126.19Z" fill="#AB7246"/>
<path opacity="0.51" d="M1911.22 1616.82C1858.38 1632.25 1801.34 1626.71 1747.59 1638.68C1689.06 1651.86 1635.61 1686.45 1599.68 1734.51C1609.71 1786.47 1623.78 1834.83 1636.51 1886.19C1640.25 1901.76 1645.19 1918.68 1658.52 1927.67C1675.73 1939.19 1698.79 1932.16 1718.25 1924.82C1786.67 1898.77 1855.23 1872.71 1923.65 1846.66C1937.42 1841.42 1951.79 1835.88 1961.67 1824.95C1985.63 1798.9 1974.1 1756.67 1955.83 1726.28C1937.57 1695.88 1909.57 1652.31 1911.22 1616.82Z" fill="#AB7246"/>
<path opacity="0.51" d="M1322.99 1718.04C1304.72 1723.88 1286.46 1731.81 1272.98 1745.59C1249.03 1770 1244.84 1806.83 1241.7 1840.82C1238.7 1875.26 1237.2 1914.64 1261.61 1939.19C1278.22 1955.81 1302.93 1961.2 1326.13 1965.1C1369.4 1972.43 1413.11 1977.52 1456.97 1980.52C1484.22 1982.32 1514.46 1982.32 1534.82 1964.35C1556.23 1945.63 1559.37 1912.84 1552.79 1885.29C1546.2 1857.74 1531.38 1832.73 1521.95 1805.93C1514.16 1784.07 1513.86 1764.91 1515.96 1742.15C1517.61 1724.93 1523.3 1730.47 1509.67 1720.14C1501.44 1713.85 1482.87 1712.2 1472.99 1710.25C1423.29 1700.22 1371.19 1702.77 1322.84 1718.34L1322.99 1718.04Z" fill="#AB7246"/>
<path opacity="0.51" d="M1180.47 1811.92C1177.33 1841.87 1164.45 1874.81 1136.16 1884.84C1119.39 1890.83 1100.98 1887.39 1083.61 1883.64C1043.34 1874.81 1003.67 1864.03 964.294 1851.6C950.671 1847.26 936.449 1842.47 926.419 1832.29C911.747 1817.61 908.603 1794.4 913.544 1774.19C918.484 1753.98 930.461 1736.46 943.036 1719.99C957.408 1700.97 973.576 1682.11 995.583 1672.67C1027.02 1659.2 1063.4 1668.18 1095.14 1681.06C1117.15 1690.04 1172.09 1700.82 1183.91 1721.93C1194.84 1741.55 1182.72 1790.21 1180.32 1811.77L1180.47 1811.92Z" fill="#AB7246"/>
<path opacity="0.51" d="M773.714 1498.24C753.353 1501.98 733.293 1514.41 726.256 1533.87C719.819 1551.84 725.358 1571.76 730.897 1590.17C744.072 1633.15 758.294 1678.06 790.631 1709.36C812.338 1730.32 846.621 1743.65 872.82 1728.37C870.874 1708.91 884.946 1692.14 897.521 1677.32C910.097 1662.49 923.271 1644.23 918.78 1625.21C916.983 1617.42 912.342 1610.69 907.851 1604.1C888.24 1575.5 869.526 1545.7 848.717 1517.85C829.105 1491.65 804.703 1498.39 773.714 1498.39V1498.24Z" fill="#AB7246"/>
<path d="M1181.07 1976.63C1193.79 1993.25 1184.06 2017.2 1172.98 2035.02C1092.14 2164.24 950.071 2245.99 802.16 2282.68C654.249 2319.36 499.452 2315.62 347.499 2305.14C506.937 2366.83 710.09 2370.27 872.372 2316.52C1034.66 2262.76 1154.87 2151.96 1246.04 2007.17C1248.74 2002.98 1251.43 1998.34 1250.83 1993.4C1250.23 1987.11 1244.54 1982.62 1239.75 1978.42C1211.01 1953.42 1197.99 1911.79 1207.12 1874.81C1206.22 1904.61 1177.78 1927.81 1148.43 1932.76C1119.09 1937.7 1089.3 1928.56 1061.3 1918.23C1046.33 1912.69 1002.32 1889.18 988.695 1901.01C1001.57 1926.62 1051.87 1946.83 1077.47 1956.71C1094.24 1963.15 1111.45 1968.24 1129.12 1971.54C1136.16 1972.88 1178.22 1972.73 1181.07 1976.63Z" fill="#AC9254"/>
<path d="M476.426 1417.98C469.539 1425.47 468.342 1437.15 461.006 1444.33C451.275 1453.92 433.011 1453.62 427.322 1465.89C423.429 1474.43 427.921 1484.31 432.861 1492.25C468.342 1549.44 527.775 1587.78 589.006 1615.63C545.89 1596.46 504.122 1574.45 464 1549.89C442.293 1536.57 420.735 1522.04 404.716 1502.13C398.279 1493.89 392.739 1484.76 390.194 1474.58C387.649 1464.4 388.697 1453.17 394.237 1444.33C399.776 1435.5 410.405 1429.51 420.735 1431.16C426.873 1432.06 433.46 1435.2 438.7 1432.21C441.843 1430.41 443.49 1426.96 444.987 1423.82C449.479 1415.14 455.018 1407.05 462.503 1400.91C469.988 1394.77 479.42 1390.73 489.151 1390.88C499.181 1391.03 508.313 1395.52 517.745 1398.22C523.284 1399.71 536.159 1401.21 524.033 1406.6C508.613 1413.49 489.301 1403.91 476.126 1418.28L476.426 1417.98Z" fill="#AC9254"/>
<path d="M2526.65 1339.37C2558.24 1361.53 2574.71 1399.26 2585.94 1436.24C2632.94 1593.01 2609.14 1764.9 2546.41 1916.13C2483.69 2067.36 2384.43 2200.47 2278.44 2325.2C2263.62 2342.72 2247.9 2360.53 2227.24 2370.72C2206.58 2380.9 2179.48 2381.2 2162.56 2365.62C2164.21 2391.23 2195.95 2405.9 2220.8 2399.61C2245.65 2393.32 2264.36 2373.26 2281.28 2353.95C2389.97 2230.87 2492.22 2099.85 2562.13 1951.17C2632.05 1802.63 2668.42 1634.34 2640.43 1472.48C2633.99 1435.49 2624.11 1398.51 2604.8 1366.17C2585.49 1333.83 2555.84 1306.72 2519.76 1296.24C2518.72 1295.94 2498.51 1311.67 2495.21 1313.16C2485.48 1317.21 2475.3 1317.66 2465.42 1320.35C2487.58 1322.45 2507.94 1325.89 2526.8 1339.07L2526.65 1339.37Z" fill="#AC9254"/>
<path d="M2799.59 1097.7C2844.95 1132.44 2872.94 1184.85 2895.4 1237.4C2932.68 1324.85 2957.98 1417.83 2963.22 1512.76C2968.46 1607.69 2953.04 1704.42 2912.32 1790.21C2979.54 1655.6 3006.33 1501.53 2990.46 1351.8C2984.33 1293.1 2973.25 1215.99 2944.5 1164.48C2919.8 1120.46 2892.86 1097.7 2857.38 1061.92C2844.8 1049.34 2821.74 1040.21 2805.88 1032.27C2778.93 1018.8 2746.44 1021.04 2718.15 1031.37C2699.73 1038.11 2654.52 1056.38 2647.34 1075.09C2701.08 1057.43 2753.18 1061.92 2799.74 1097.55L2799.59 1097.7Z" fill="#AC9254"/>
<path d="M3079.35 947.67C3064.53 996.033 3012.73 1030.02 2962.43 1024.48C2991.17 1034.96 3023.81 1028.82 3050.9 1014.75C3078 1000.67 3100.76 979.563 3123.06 958.75C3128.45 953.659 3134.29 947.819 3134.44 940.333C3134.44 931.798 3126.51 924.911 3118.27 922.964C3110.04 921.018 3101.21 922.515 3092.67 922.964C3078.3 924.012 3063.78 922.215 3050.01 918.173C3041.02 915.478 3023.06 902.002 3014.53 905.895C3020.36 930.9 3055.99 947.37 3079.35 947.52V947.67Z" fill="#AC9254"/>
<path d="M2896.13 754.666C2917.54 769.939 2949.58 760.057 2965.75 739.244C2981.92 718.431 2984.91 690.431 2983.26 664.228C2981.47 637.127 2974.13 608.379 2953.62 590.561C2938.2 577.085 2916.2 571.694 2896.13 576.186C2876.07 580.678 2858.86 595.352 2850.77 614.218C2844.19 629.94 2843.89 647.608 2845.23 664.528C2847.33 689.084 2853.02 713.939 2866.04 734.902" fill="#EDF6FF"/>
<path d="M2868.89 638.477C2863.5 650.605 2863.5 664.381 2864.7 677.557C2866.05 692.38 2868.89 707.503 2877.12 719.931C2885.36 732.359 2899.73 741.492 2914.55 739.845C2931.77 737.899 2944.94 721.728 2947.94 704.509C2950.93 687.29 2945.69 669.771 2938.35 654.049C2925.33 625.6 2887.6 596.103 2869.04 638.327L2868.89 638.477Z" fill="#822A17"/>
<path d="M2882.35 679.205C2883.1 688.788 2885.34 698.67 2892.08 705.408C2898.82 712.146 2911.39 713.643 2917.53 706.306C2923.52 699.119 2920.67 688.488 2917.53 679.804C2914.39 671.419 2908.25 657.344 2897.77 655.697C2884.45 653.601 2881.6 669.023 2882.5 679.055L2882.35 679.205Z" fill="#231F20"/>
<path d="M2909.89 675.617C2914.23 676.066 2918.43 673.521 2920.97 669.927C2923.52 666.334 2924.26 661.842 2924.56 657.5C2925.31 644.922 2915.13 623.81 2899.41 633.692C2886.84 641.778 2895.67 673.97 2910.04 675.617H2909.89Z" fill="#FFFBF9"/>
<path d="M2924.44 679.954C2923.24 681.302 2922.79 683.099 2922.49 684.895C2921.89 688.489 2922.04 692.232 2924.29 695.227C2926.53 698.221 2931.03 699.27 2933.72 697.024C2936.12 695.077 2936.27 691.334 2935.37 688.339C2934.32 684.296 2929.23 674.414 2924.44 680.104V679.954Z" fill="white"/>
<path d="M3058.27 598.349C3053.78 588.317 3049.74 577.836 3049.44 566.906C3049.14 555.975 3053.03 544.296 3062.02 537.858C3069.95 532.168 3080.43 531.27 3090.16 532.467C3107.98 534.713 3124.44 542.949 3139.12 553.13C3150.19 560.916 3160.37 570.05 3168.01 581.13C3175.64 592.21 3180.43 605.536 3180.14 619.162C3179.84 632.788 3173.7 646.263 3163.07 654.349C3148.7 665.279 3127.89 664.83 3111.42 657.194C3094.95 649.557 3082.23 635.782 3071.45 621.258C3060.22 606.285 3050.19 589.066 3049.89 570.349" fill="#EDF6FF"/>
<path d="M3122.18 645.811C3127.27 644.763 3132.06 642.218 3135.2 638.325C3140.59 631.737 3141.19 622.303 3140.14 613.769C3137.9 595.202 3129.36 577.384 3116.19 563.908C3110.05 557.62 3102.72 552.08 3094.33 549.684C3085.95 547.288 3076.07 548.186 3069.18 553.727C3064.24 557.62 3061.1 563.609 3059.75 569.898C3057.65 579.48 3059.6 589.512 3063.49 598.496C3067.38 607.48 3073.37 615.266 3079.66 622.902C3090.29 635.63 3103.91 649.555 3122.18 645.961V645.811Z" fill="#822A17"/>
<path d="M3082.19 581.73C3080.09 584.276 3079.34 587.72 3079.19 591.014C3078.59 605.388 3087.43 619.912 3100.6 625.751C3103.6 627.099 3106.74 627.997 3110.03 627.848C3113.33 627.698 3116.62 626.35 3118.57 623.805C3121.11 620.511 3121.26 616.019 3120.66 611.976C3119.31 602.543 3114.22 593.709 3107.04 587.42C3101.5 582.479 3088.47 573.795 3081.89 581.73H3082.19Z" fill="#231F20"/>
<path d="M3080.42 569.302C3080.87 573.794 3083.56 577.836 3086.56 581.13C3090.15 585.023 3094.79 588.317 3100.18 588.767C3105.57 589.216 3111.26 585.622 3112.01 580.382C3112.46 576.638 3110.36 573.045 3108.26 569.751C3105.72 566.008 3102.88 562.414 3099.13 560.018C3091.35 555.077 3079.52 558.671 3080.57 569.302H3080.42Z" fill="#FFFBF9"/>
<path d="M3114.42 592.512C3113.23 595.057 3113.52 598.202 3114.87 600.597C3116.22 602.993 3118.76 604.79 3121.46 605.539C3123.26 605.988 3125.35 606.138 3127 605.239C3129.69 603.892 3131.04 600.448 3130.44 597.453C3129.24 589.817 3118.62 583.079 3114.27 592.362L3114.42 592.512Z" fill="#FFFBF9"/>
<g opacity="0.4">
<path d="M2720.37 511.96C2726.21 502.228 2735.19 494.891 2744.32 488.453C2751.36 483.512 2760.49 479.02 2767.98 483.212C2772.47 485.757 2775.01 491.148 2775.16 496.388C2775.31 501.629 2773.52 506.72 2771.12 511.362C2764.23 525.137 2752.56 536.367 2738.48 542.805C2732.05 545.8 2719.77 548.645 2715.58 541.008C2711.09 532.923 2716.03 519.148 2720.37 512.11V511.96Z" fill="#912F04"/>
<path d="M2751.81 580.085C2756.45 574.695 2762.74 569.454 2769.77 570.203C2775.01 570.802 2779.36 574.545 2781.75 579.336C2784.15 584.128 2784.75 589.368 2785.05 594.609C2785.94 621.86 2773.67 649.111 2752.71 666.63C2748.82 669.924 2744.32 672.919 2739.23 672.769C2722.02 672.469 2727.11 638.63 2728.91 628.598C2732.2 610.78 2739.98 593.86 2751.81 580.235V580.085Z" fill="#912F04"/>
<path d="M2677.7 589.973C2680.69 586.23 2685.33 582.786 2689.82 584.433C2693.27 585.781 2695.06 589.674 2695.81 593.268C2698.81 605.246 2697.31 618.123 2691.77 629.053C2686.68 639.235 2669.91 649.117 2665.87 632.946C2662.28 618.572 2668.42 601.054 2677.55 589.973H2677.7Z" fill="#912F04"/>
<path d="M2692.24 721.88C2690.89 711.249 2693.44 700.019 2699.13 690.885C2702.42 685.645 2707.96 680.703 2713.95 682.051C2717.24 682.8 2719.79 685.345 2721.28 688.34C2722.78 691.334 2723.23 694.778 2723.53 698.072C2724.28 707.505 2723.08 716.938 2720.23 725.922C2718.89 730.264 2716.79 734.756 2713.05 737.452C2701.97 744.938 2693.44 731.013 2692.24 721.88V721.88Z" fill="#912F04"/>
<path d="M2656.47 680.851C2659.31 676.06 2664.1 671.568 2669.49 672.616C2674.43 673.514 2677.28 678.605 2678.47 683.546C2681.02 693.728 2679.07 704.958 2673.23 713.642C2671.59 716.038 2669.49 718.434 2666.95 719.781C2647.03 731.31 2651.23 689.535 2656.47 680.851V680.851Z" fill="#912F04"/>
<path d="M2684.58 774.882C2687.57 770.24 2692.07 765.599 2697.6 765.898C2701.35 766.048 2704.64 768.593 2706.44 771.887C2708.23 775.181 2709.13 778.775 2709.43 782.518C2710.48 792.999 2708.98 803.78 2704.94 813.513C2700.6 824.443 2684.28 837.619 2676.65 821.748C2669.91 807.523 2676.35 787.16 2684.43 775.032L2684.58 774.882Z" fill="#912F04"/>
<path d="M2721.42 866.376C2723.37 856.194 2728.31 847.06 2733.84 838.226C2736.99 832.986 2740.58 827.895 2745.52 824.451C2750.46 821.007 2757.35 819.51 2762.74 822.505C2770.07 826.398 2771.72 836.13 2771.27 844.365C2770.82 854.248 2768.88 863.98 2765.28 873.114C2762.59 880.301 2758.7 887.338 2752.71 892.13C2746.72 896.771 2735.04 900.365 2728.31 895.274C2720.37 889.285 2719.77 874.911 2721.42 866.226V866.376Z" fill="#912F04"/>
<path d="M2590.15 826.25C2588.35 824.454 2587.3 822.058 2586.55 819.662C2581.16 803.192 2582.81 784.326 2591.19 769.053C2593.29 765.31 2595.69 761.866 2598.98 759.171C2602.27 756.476 2606.76 755.128 2610.81 756.026C2615.3 756.925 2619.04 760.518 2620.99 764.561C2622.93 768.604 2623.83 773.246 2624.28 777.887C2625.33 788.368 2625.03 799.449 2620.69 809.181C2617.09 817.416 2600.03 836.133 2589.85 826.25H2590.15Z" fill="#912F04"/>
<path d="M2615.56 884.037C2616.91 877.748 2619.01 871.31 2623.05 866.369C2627.09 861.428 2633.68 857.984 2640.12 859.032C2647.9 860.529 2653.14 868.016 2655.53 875.652C2660.92 892.422 2656.13 921.32 2638.17 929.406C2613.32 940.785 2612.42 897.213 2615.41 883.887L2615.56 884.037Z" fill="#912F04"/>
<path d="M2550.45 835.975C2551.8 831.932 2553.6 828.039 2556.74 825.045C2559.88 822.05 2564.08 820.253 2568.27 820.852C2573.06 821.601 2576.8 825.494 2578.75 829.986C2580.69 834.478 2580.84 839.419 2580.99 844.21C2580.99 850.2 2580.99 856.189 2579.2 861.879C2577.4 867.568 2573.81 872.959 2568.57 875.654C2545.66 887.632 2546.71 847.954 2550.6 835.975H2550.45Z" fill="#912F04"/>
<path d="M2512.58 792.26C2516.32 788.966 2521.11 785.971 2525.9 787.169C2529.19 787.918 2531.74 790.613 2533.24 793.607C2534.73 796.602 2534.88 800.046 2534.88 803.49C2534.43 818.463 2525.3 832.987 2511.98 840.024C2500.9 845.714 2490.12 839.725 2491.92 827.147C2493.71 813.971 2502.7 800.795 2512.58 792.26V792.26Z" fill="#912F04"/>
<path d="M2470.21 901.859C2473.05 891.977 2478.59 882.993 2484.28 874.309C2486.83 870.416 2489.37 866.522 2492.96 863.528C2496.56 860.533 2501.05 858.437 2505.69 858.736C2511.38 859.186 2516.17 863.528 2518.56 868.619C2520.96 873.71 2521.26 879.699 2520.81 885.389C2519.46 900.811 2512.13 915.485 2500.9 925.966C2497.16 929.41 2493.11 932.404 2488.32 933.902C2467.81 940.34 2466.47 915.485 2470.36 901.709L2470.21 901.859Z" fill="#912F04"/>
<path d="M2553.45 910.845C2556.3 908.149 2560.94 906.652 2563.93 909.048C2565.58 910.395 2566.48 912.641 2566.33 914.738C2566.18 916.834 2565.58 918.93 2564.83 921.026C2562.73 925.967 2556.3 934.951 2550.61 928.962C2546.12 924.171 2549.56 914.588 2553.45 910.845Z" fill="#912F04"/>
<path d="M2627.25 1219.59C2622.31 1202.22 2623.06 1183.2 2629.65 1166.28C2632.04 1160.15 2635.19 1154.16 2640.28 1149.81C2645.37 1145.47 2652.4 1143.38 2658.69 1145.47C2668.57 1148.77 2672.31 1160.89 2673.21 1171.23C2674.56 1188.15 2672.01 1205.36 2665.87 1221.24C2656.14 1246.24 2634.74 1244.89 2627.4 1219.59H2627.25Z" fill="#912F04"/>
<path d="M2686.84 1236.06C2685.04 1230.37 2683.09 1224.53 2682.94 1218.54C2682.79 1212.55 2684.59 1206.27 2689.23 1202.37C2693.87 1198.48 2701.21 1197.73 2705.55 1201.92C2710.79 1206.86 2709.44 1215.4 2707.5 1222.29C2706.15 1226.93 2704.65 1231.87 2701.36 1235.46C2698.06 1239.06 2692.23 1240.85 2688.03 1238.31" fill="#912F04"/>
<path d="M2730.09 1236.06C2735.03 1229.17 2741.91 1222.58 2750.45 1221.83C2760.03 1221.08 2768.71 1228.12 2772.9 1236.8C2779.79 1251.03 2776.49 1267.8 2772.3 1283.07C2768.86 1295.2 2764.52 1307.78 2755.09 1316.16C2738.17 1331.14 2720.05 1323.35 2716.31 1303.43C2711.97 1280.08 2716.16 1255.52 2730.09 1236.06Z" fill="#912F04"/>
<path d="M2770.81 1322.76C2770.81 1315.73 2774.11 1308.39 2780.25 1304.79C2786.38 1301.2 2795.37 1302.55 2799.11 1308.69C2802.1 1313.48 2801.2 1319.62 2800.16 1325.16C2795.22 1349.12 2770.51 1348.82 2770.81 1322.76V1322.76Z" fill="#912F04"/>
<path d="M2805.27 1369.47C2808.72 1362.14 2812.76 1354.95 2818.9 1349.71C2825.04 1344.47 2833.57 1341.32 2841.35 1343.42C2848.54 1345.37 2854.08 1351.36 2857.07 1358.24C2860.07 1365.13 2860.67 1372.62 2860.82 1380.1C2861.41 1406.61 2849.44 1458.71 2812.46 1453.77C2775.48 1448.83 2795.84 1389.09 2805.12 1369.47H2805.27Z" fill="#912F04"/>
<path d="M2788.96 1526.68C2786.42 1521.29 2783.72 1515.9 2782.82 1509.91C2781.93 1503.93 2782.82 1497.64 2786.42 1492.99C2790.01 1488.35 2797.2 1486.26 2802.44 1489.25C2809.47 1493.29 2809.47 1503.33 2807.38 1511.11C2806.03 1515.75 2804.23 1520.4 2800.79 1523.84C2797.35 1527.28 2792.26 1529.38 2787.62 1528.03" fill="#912F04"/>
<path d="M2830.42 1477.57C2832.97 1473.08 2836.26 1468.74 2840.6 1465.89C2844.94 1463.05 2850.78 1462 2855.57 1464.1C2861.71 1466.79 2864.7 1473.68 2866.65 1480.12C2869.35 1489.4 2870.99 1499.28 2869.64 1509.02C2867.55 1524.44 2848.54 1550.19 2830.42 1538.21C2813.8 1527.28 2822.79 1491.2 2830.42 1477.72V1477.57Z" fill="#912F04"/>
<path d="M2881.47 1518.45C2882.51 1512.61 2885.51 1506.02 2891.35 1504.53C2896.44 1503.33 2901.83 1506.77 2904.37 1511.41C2906.92 1516.06 2906.92 1521.6 2906.47 1526.84C2905.72 1535.22 2900.03 1550.49 2888.35 1546.6C2878.47 1543.31 2879.97 1526.39 2881.47 1518.3V1518.45Z" fill="#912F04"/>
<path d="M2811.1 1661.3C2809.9 1629.41 2822.32 1597.06 2844.48 1574.15C2852.11 1566.22 2863.79 1559.03 2873.37 1564.42C2881.76 1569.21 2882.95 1580.59 2882.51 1590.18C2881.76 1611.14 2878.01 1632.25 2868.58 1650.97C2861.4 1665.19 2848.97 1682.41 2833.7 1688.7C2815.29 1696.19 2811.54 1675.97 2810.95 1661.3H2811.1Z" fill="#912F04"/>
<path d="M2899.88 1574C2901.68 1569.66 2903.77 1565.47 2906.92 1562.03C2910.06 1558.58 2914.55 1556.19 2919.19 1556.34C2924.28 1556.63 2928.77 1560.08 2931.47 1564.57C2934.16 1569.06 2935.06 1574.15 2935.36 1579.24C2936.71 1596.91 2929.67 1631.95 2905.57 1630.75C2879.22 1629.4 2893.89 1587.63 2899.73 1574H2899.88Z" fill="#912F04"/>
<path d="M2849.13 1761.77C2848.99 1732.12 2860.06 1702.63 2879.82 1680.62C2884.02 1675.83 2888.81 1671.33 2894.8 1668.79C2900.78 1666.24 2907.82 1665.94 2913.21 1669.54C2922.04 1675.38 2922.64 1687.95 2921.59 1698.58C2919.95 1717.9 2916.5 1737.81 2905.57 1753.69C2896.59 1766.71 2849.28 1793.96 2849.13 1761.92V1761.77Z" fill="#912F04"/>
<path d="M2268.99 2224.44C2275.28 2219.65 2283.52 2215.3 2290.85 2218.15C2298.64 2221.14 2301.63 2230.58 2302.53 2238.81C2304.62 2258.87 2298.79 2279.39 2287.71 2296.31C2279.92 2308.14 2259.86 2331.94 2243.39 2328.95C2223.33 2325.36 2230.07 2289.72 2233.96 2276.39C2239.8 2256.03 2252.23 2237.31 2268.99 2224.29V2224.44Z" fill="#912F04"/>
<path d="M2209.27 2187.3C2213.31 2171.13 2220.65 2155.71 2230.83 2142.23C2234.27 2137.59 2238.31 2133.1 2243.25 2130.1C2248.19 2127.11 2254.78 2126.21 2260.02 2128.6C2265.26 2131 2268.55 2136.24 2269.75 2141.78C2270.95 2147.32 2270.35 2153.16 2269.3 2158.7C2265.56 2177.72 2256.73 2195.68 2244 2210.21C2237.86 2217.1 2224.39 2229.67 2214.06 2223.83C2203.13 2217.54 2206.72 2196.73 2209.12 2187.3H2209.27Z" fill="#912F04"/>
<path d="M2296.55 2105.09C2300 2096.26 2305.69 2088.32 2311.23 2080.54C2313.77 2076.94 2316.32 2073.35 2319.91 2070.81C2323.5 2068.26 2327.99 2066.61 2332.19 2067.96C2336.23 2069.16 2339.22 2072.75 2340.72 2076.64C2342.22 2080.54 2342.22 2085.03 2341.77 2089.22C2340.42 2103.3 2334.58 2116.77 2325.15 2127.4C2304.79 2150.46 2287.27 2128.75 2296.55 2105.09V2105.09Z" fill="#912F04"/>
<path d="M2255.68 2070.36C2260.92 2065.72 2269.15 2063.02 2274.69 2067.36C2280.08 2071.56 2279.63 2079.64 2278.14 2086.23C2275.74 2097.46 2264.66 2118.27 2250.29 2107.79C2238.32 2098.96 2247 2078.14 2255.68 2070.51V2070.36Z" fill="#912F04"/>
<path d="M2237.39 1992.2C2243.08 1976.48 2252.51 1962.4 2262.54 1949.07C2266.58 1943.68 2271.07 1938.29 2276.76 1934.85C2282.45 1931.41 2289.93 1929.91 2296.07 1932.9C2306.25 1937.84 2307.9 1951.62 2306.4 1962.85C2302.06 1995.79 2281.55 2026.19 2252.66 2042.66C2224.06 2058.98 2232.9 2004.33 2237.24 1992.2H2237.39Z" fill="#912F04"/>
<path d="M2329.31 1850.41C2333.2 1845.02 2339.04 1839.93 2345.63 1840.67C2350.57 1841.27 2354.61 1845.47 2356.41 1850.11C2358.2 1854.75 2357.9 1859.99 2357.3 1864.93C2355.51 1876.91 2342.03 1915.09 2324.37 1907.45C2304.61 1898.92 2321.37 1861.19 2329.31 1850.41V1850.41Z" fill="#912F04"/>
<path d="M2261.23 1882.9C2264.82 1877.66 2270.51 1871.82 2276.5 1874.22C2281.29 1876.17 2282.49 1882.45 2282.34 1887.69C2282.04 1898.63 2278.9 1909.26 2273.36 1918.69C2267.37 1928.72 2256.29 1933.66 2250.6 1921.23C2244.46 1908.06 2254.2 1893.23 2261.38 1883.05L2261.23 1882.9Z" fill="#912F04"/>
<path d="M2380.68 1763.41C2383.98 1759.82 2388.62 1756.38 2393.26 1757.57C2399.4 1759.07 2401.49 1766.86 2401.19 1773.3C2400.59 1787.22 2394.75 1801 2385.02 1811.03C2373.5 1822.86 2365.11 1816.27 2365.41 1802.64C2365.71 1789.02 2370.95 1774.04 2380.68 1763.56V1763.41Z" fill="#912F04"/>
<path d="M2289.98 1782.88C2293.27 1767.76 2300.91 1753.83 2309.89 1741.26C2312.58 1737.36 2315.58 1733.62 2319.47 1730.77C2323.36 1727.93 2328.3 1726.58 2332.94 1727.78C2338.48 1729.28 2342.38 1734.67 2343.72 1740.21C2345.07 1745.75 2344.17 1751.74 2343.12 1757.43C2339.53 1775.69 2331.6 1806.84 2314.08 1817.32C2289.98 1831.84 2286.54 1798.45 2289.98 1782.88Z" fill="#912F04"/>
<path d="M2415.54 1590.32C2418.99 1585.23 2422.88 1580.29 2427.97 1577C2433.06 1573.7 2439.65 1572.06 2445.49 1574.3C2450.88 1576.4 2454.77 1581.64 2456.41 1587.18C2458.06 1592.72 2457.76 1598.71 2457.16 1604.55C2454.62 1627.16 2435.61 1691.24 2402.67 1683.31C2366.74 1674.62 2404.77 1606.49 2415.69 1590.47L2415.54 1590.32Z" fill="#912F04"/>
<path d="M2326.18 1664.14C2325.89 1658.6 2327.53 1653.21 2329.63 1647.97C2333.67 1637.34 2339.36 1627.16 2346.1 1618.02C2349.24 1613.83 2352.83 1609.64 2357.77 1607.54C2362.71 1605.45 2369 1605.9 2372.29 1609.94C2375.44 1613.68 2375.14 1619.07 2374.54 1623.86C2372.44 1639.29 2367.2 1654.26 2359.27 1667.59C2350.14 1683.16 2327.23 1687.2 2326.18 1663.99V1664.14Z" fill="#912F04"/>
<path d="M2418.55 1482.67C2421.69 1477.73 2425.28 1472.94 2430.07 1469.64C2434.86 1466.35 2441.6 1465.3 2446.69 1468C2454.18 1471.89 2456.12 1481.92 2455.82 1490.45C2455.37 1510.37 2439.66 1568.76 2410.31 1562.92C2380.97 1557.09 2409.86 1496.29 2418.4 1482.67H2418.55Z" fill="#912F04"/>
<path d="M2425.77 1412C2429.51 1404.96 2436.7 1398.22 2444.48 1400.32C2451.37 1402.26 2454.51 1410.35 2454.66 1417.54C2454.96 1429.52 2444.63 1456.17 2429.36 1456.62C2410.2 1457.22 2420.83 1421.28 2425.92 1412H2425.77Z" fill="#912F04"/>
<path d="M882.254 1861.63C870.128 1863.13 857.403 1868.22 851.265 1878.7C843.78 1891.43 848.57 1909.1 859.798 1918.83C882.404 1938.6 929.712 1931.86 944.982 1905.06C963.545 1872.56 903.812 1858.94 882.254 1861.63V1861.63Z" fill="#912F04"/>
<path d="M652.752 1908.35C634.188 1905.96 615.325 1909.1 597.061 1913.29C589.875 1914.94 582.689 1916.74 576.401 1920.48C570.114 1924.22 564.874 1930.21 563.676 1937.55C562.179 1946.23 566.97 1954.92 573.856 1960.46C580.743 1966 589.426 1968.39 597.959 1970.19C624.008 1975.28 669.819 1977.38 688.382 1953.42C708.443 1927.67 674.16 1911.2 652.752 1908.5V1908.35Z" fill="#912F04"/>
<path d="M461.459 1910.6C455.022 1914.04 449.033 1920.48 449.932 1927.67C450.53 1932.76 454.423 1936.95 459.064 1939.35C463.705 1941.74 468.944 1942.34 474.034 1942.79C481.37 1943.54 489.005 1943.99 496.041 1942.04C503.078 1940.1 509.964 1935.31 512.509 1928.42C521.941 1902.36 474.184 1903.86 461.609 1910.75L461.459 1910.6Z" fill="#912F04"/>
<path d="M538.532 2054.34C531.646 2056.29 524.16 2059.29 521.316 2065.87C518.921 2071.41 520.867 2078.15 524.61 2082.79C528.352 2087.44 533.891 2090.58 539.431 2092.98C571.019 2107.5 608.595 2108.4 640.782 2095.52C648.567 2092.38 656.651 2087.88 659.795 2080.1C667.58 2060.03 627.159 2054.94 614.883 2052.4C589.732 2047.01 563.384 2047.61 538.532 2054.34V2054.34Z" fill="#912F04"/>
<path d="M374.754 2071.86C394.365 2068.26 414.576 2069.31 433.738 2074.55C439.427 2076.05 445.116 2078.15 449.457 2082.19C453.799 2086.23 456.344 2092.52 454.398 2098.06C452.152 2104.5 445.116 2107.64 438.679 2109.59C420.414 2115.13 401.102 2116.63 382.089 2114.08C371.31 2112.73 351.399 2107.79 347.657 2095.51C343.315 2081.14 364.723 2073.65 374.754 2071.86V2071.86Z" fill="#912F04"/>
<path d="M362.336 2018.7C356.647 2013.61 349.162 2011.37 341.826 2009.72C315.028 2003.73 285.985 2002.98 261.134 2014.81C255.295 2017.51 249.157 2022 249.157 2028.44C249.157 2035.03 255.445 2039.82 261.433 2042.81C278.5 2051.2 297.513 2055.24 316.376 2054.94C325.807 2054.79 335.239 2053.44 344.521 2051.05C351.258 2049.25 362.635 2047.15 367.126 2041.46C372.366 2034.88 367.725 2023.65 362.336 2018.85V2018.7Z" fill="#912F04"/>
<path d="M184.932 2118.88C207.538 2123.52 231.341 2121.72 253.048 2114.09C261.432 2111.09 269.816 2106.9 275.804 2100.16C281.792 2093.42 284.487 2083.39 280.894 2075.16C277.6 2067.52 269.666 2062.88 261.731 2059.88C241.671 2051.95 218.915 2050.6 197.956 2055.84C185.231 2059.14 172.356 2065.28 165.17 2076.36C152.894 2095.22 164.422 2114.69 184.782 2118.88H184.932Z" fill="#912F04"/>
<path d="M241.212 2170.08C236.421 2168.14 231.331 2167.24 226.241 2166.49C221.451 2165.74 216.66 2164.99 212.019 2166.34C207.378 2167.69 203.186 2171.43 202.887 2176.22C202.588 2181.76 207.528 2186.26 212.618 2188.8C222.349 2193.89 233.876 2195.54 244.506 2193.44C250.045 2192.39 257.231 2188.5 255.434 2181.76C254.087 2176.52 245.703 2172.03 241.362 2170.23L241.212 2170.08Z" fill="#912F04"/>
<path d="M389.297 2154.66C385.105 2149.72 378.518 2147.77 372.38 2146.12C355.613 2141.78 338.396 2138.34 321.18 2139.39C314.443 2139.83 306.509 2141.93 304.712 2148.37C302.916 2155.11 309.203 2161.25 315.341 2164.69C330.162 2173.22 347.528 2176.82 364.445 2175.32C371.332 2174.72 380.763 2173.82 387.201 2170.98C393.638 2168.13 393.489 2159.3 389.297 2154.36V2154.66Z" fill="#912F04"/>
<path d="M308.467 2227.13C314.006 2234.47 322.54 2238.81 331.372 2241.65C350.086 2247.64 370.745 2247.49 389.309 2241.05C398.441 2237.91 407.723 2232.37 410.268 2223.09C412.364 2215.15 408.471 2206.47 402.334 2200.93C396.196 2195.39 388.111 2192.54 380.027 2190.6C367.601 2187.6 354.577 2186.1 341.852 2188.05C329.875 2189.85 319.396 2194.94 309.365 2201.38C300.533 2207.07 302.778 2219.19 308.467 2226.98V2227.13Z" fill="#912F04"/>
<path d="M582.862 1495.39C577.173 1495.99 571.035 1497.64 567.592 1502.13C564.448 1506.17 564.148 1511.86 565.645 1516.8C567.143 1521.74 570.286 1525.94 573.73 1529.68C590.048 1548.25 613.103 1560.67 637.655 1563.97C644.99 1565.02 653.074 1565.02 658.913 1560.53C668.195 1553.64 667.147 1538.51 660.111 1529.53C651.577 1518.6 636.756 1513.96 625.828 1506.17C613.701 1497.49 597.683 1493.74 583.012 1495.24L582.862 1495.39Z" fill="#912F04"/>
<path d="M589.152 1419.63C589.451 1425.92 594.242 1431.01 599.482 1434.6C608.165 1440.74 618.644 1444.34 629.273 1445.08C635.561 1445.53 642.747 1444.49 646.789 1439.69C650.532 1435.2 650.831 1428.46 648.136 1423.22C640.95 1409.15 587.954 1391.18 589.152 1419.63V1419.63Z" fill="#912F04"/>
<path d="M503.068 1418.28C498.876 1417.53 494.086 1417.38 490.792 1420.22C487.349 1423.22 486.75 1428.61 488.547 1432.8C490.343 1436.99 493.637 1440.29 497.23 1443.13C508.009 1451.82 520.584 1458.26 534.058 1461.85C537.95 1462.9 541.992 1463.65 545.735 1462.3C550.825 1460.5 553.969 1454.81 553.669 1449.27C552.771 1429.66 518.189 1420.97 503.068 1418.28V1418.28Z" fill="#912F04"/>
<path d="M469.506 1463.35C465.464 1462.45 460.823 1462.01 457.23 1464.25C451.99 1467.4 450.942 1474.58 452.29 1480.42C454.236 1488.51 459.476 1495.4 465.913 1500.64C472.35 1505.88 479.836 1509.62 487.321 1513.06C493.908 1516.21 501.543 1519.2 508.28 1516.51C516.215 1513.51 519.658 1503.33 517.262 1495.25C512.172 1478.18 485.075 1466.65 469.356 1463.35H469.506Z" fill="#912F04"/>
</g>
<path d="M2906.61 764.254C2935.05 776.382 2965.44 756.917 2977.87 731.014C2992.84 700.019 2992.84 659.143 2982.96 626.651C2973.08 594.159 2951.37 573.347 2917.98 569.454C2884.6 565.561 2854.81 578.887 2842.53 611.079C2835.49 629.496 2835.94 649.41 2838.49 668.576C2841.33 689.239 2845.97 710.8 2854.51 729.816C2856.9 735.206 2864.99 730.564 2862.59 725.174C2856.3 711.099 2853.01 695.977 2850.32 680.854C2847.62 664.982 2846.27 648.811 2849.87 632.79C2855.56 607.935 2873.97 584.127 2900.92 582.181C2927.86 580.234 2954.36 592.512 2966.79 618.116C2979.21 643.72 2980.86 678.308 2974.57 706.608C2967.99 736.704 2944.03 768.447 2909.45 756.618C2905.26 755.12 2902.11 762.158 2906.31 763.955L2906.61 764.254Z" fill="#231F20"/>
<path d="M3121.88 538.904C3106.31 531.268 3089.24 523.182 3071.43 527.225C3053.61 531.268 3045.23 545.343 3044.03 562.712C3042.83 582.177 3047.77 601.791 3058.4 618.112C3069.03 634.433 3083.1 649.556 3099.72 658.839C3116.34 668.122 3135.8 669.62 3153.32 664.978C3170.83 660.336 3181.76 645.812 3185.5 628.893C3193.29 593.856 3169.93 559.867 3139.39 545.193C3130.26 540.851 3121.13 536.808 3111.4 533.664C3101.67 530.519 3092.84 527.075 3082.95 526.477C3073.67 525.878 3064.09 527.674 3057.2 534.412C3050.32 541.15 3046.43 549.835 3046.13 558.968C3046.13 563.76 3053.16 563.61 3053.46 558.968C3054.36 542.947 3072.92 534.263 3087 535.46C3101.82 536.658 3116.04 543.246 3128.91 550.284C3141.79 557.321 3153.77 566.754 3162.75 577.385C3171.73 588.016 3177.57 601.642 3178.32 615.567C3179.22 630.24 3173.83 645.962 3160.95 654.197C3147.03 663.032 3126.97 660.786 3112.6 654.347C3098.22 647.909 3086.55 636.978 3076.67 625C3066.79 613.021 3059 599.246 3056.61 583.674C3054.21 568.102 3051.97 546.541 3067.98 538.156C3084 529.771 3103.16 537.706 3118.58 544.744C3122.48 546.541 3125.77 540.851 3121.88 539.054V538.904Z" fill="#231F20"/>
<path d="M1988.61 808.719C2037.12 827.286 2085.47 846.302 2133.08 867.114C2154.94 876.697 2176.64 886.43 2197.9 897.21C2216.92 906.793 2235.93 917.723 2249.1 935.092C2257.19 945.873 2272.31 934.493 2263.77 923.713C2234.73 887.178 2184.43 874.152 2142.96 857.831C2092.51 838.066 2041.91 818.901 1990.56 801.682C1986.07 800.184 1984.27 807.072 1988.61 808.719V808.719Z" fill="#231F20"/>
<path d="M2578.89 715.589C2578.89 712.145 2578.89 708.702 2578.74 705.108C2578.74 694.627 2578.14 684.295 2575.45 674.114C2567.96 645.515 2544.31 622.157 2516.31 612.424C2488.32 602.692 2456.58 605.986 2429.78 618.863" stroke="#231F20" stroke-width="23" stroke-linecap="round" stroke-linejoin="round"/>
<path d="M761.887 1393.42C785.84 1198.02 875.365 1012.65 1009.2 868.458C1079.72 792.095 1162.8 727.411 1255.02 678.898C1337.66 635.177 1426.14 604.482 1514.76 574.835L1516.26 574.386C1578.39 553.723 1640.82 533.359 1705.34 520.932C1784.09 505.809 1864.93 502.665 1945.17 504.911C1973.92 505.809 2002.96 507.007 2031.85 509.552C2169.88 520.483 2306.71 551.327 2426.78 618.856" stroke="#231F20" stroke-width="23" stroke-linecap="round" stroke-linejoin="round"/>
<path d="M762.339 1394.91C762.339 1394.91 761.74 1394.46 761.291 1394.02C743.775 1379.49 718.624 1377.84 695.869 1379.64C672.514 1381.59 648.861 1386.38 626.255 1380.99C615.626 1378.44 605.446 1373.8 594.667 1374.25C571.312 1375.15 552.898 1398.96 529.694 1398.21C518.915 1397.91 509.184 1392.37 498.704 1390.42C472.955 1385.33 444.959 1404.95 440.917 1431C422.054 1419.62 395.406 1433.99 391.963 1454.96C389.268 1471.28 399.149 1487.3 410.078 1499.88C434.48 1528.47 466.068 1549.89 497.956 1569.5C561.282 1608.58 628.201 1642.87 699.312 1665.18" stroke="#231F20" stroke-width="23" stroke-linecap="round" stroke-linejoin="round"/>
<path d="M3011.69 897.499C3047.77 917.563 3089.09 924.45 3130.71 923.103C3154.51 922.204 3178.31 918.76 3201.52 913.37C3231.91 906.183 3263.05 895.103 3283.71 871.894C3307.21 845.542 3313.65 807.211 3307.51 772.473C3301.52 737.885 3284.61 705.992 3266.19 675.896C3242.69 638.314 3216.19 602.528 3187.15 569.138" stroke="#231F20" stroke-width="23" stroke-linecap="round" stroke-linejoin="round"/>
<path d="M3184.17 570.494C3184.17 570.494 3184.02 570.195 3184.02 570.045C3176.09 541.596 3160.52 515.244 3139.86 494.431C3134.77 489.49 3129.23 484.549 3123.09 480.805C3105.57 470.474 3082.52 471.971 3065.15 482.452C3057.67 486.944 3051.23 493.083 3046.74 500.72" stroke="#231F20" stroke-width="23" stroke-linecap="round" stroke-linejoin="round"/>
<path d="M3065.76 483.053C3065.76 483.053 3065.31 482.754 3065.16 482.604C3015.61 445.321 2952.28 427.653 2890.6 431.546C2828.47 435.588 2768.29 460.893 2720.83 501.021C2657.51 554.625 2618.43 630.988 2581.16 705.105" stroke="#231F20" stroke-width="23" stroke-linecap="round" stroke-linejoin="round"/>
<path d="M2559.12 742.233C2545.2 785.206 2482.92 791.944 2460.02 830.575C2450.73 846.147 2449.24 864.863 2447.89 882.831C2446.84 897.355 2445.94 912.029 2445.2 926.553C2439.21 1028.52 2438.61 1130.49 2442.65 1232.3C2443.55 1257.31 2444.75 1283.06 2436.21 1306.27C2435.31 1308.52 2434.57 1310.76 2433.52 1312.86" stroke="#231F20" stroke-width="23" stroke-linecap="round" stroke-linejoin="round"/>
<path d="M2425.31 1324.54C2421.27 1335.02 2411.54 1342.96 2400.61 1345.06C2398.96 1345.5 2397.17 1345.65 2395.52 1345.65" stroke="#231F20" stroke-width="23" stroke-linecap="round" stroke-linejoin="round"/>
<path d="M2283.53 1644.66C2346.1 1568.75 2387.57 1475.47 2402.39 1378.29" stroke="#231F20" stroke-width="23" stroke-linecap="round" stroke-linejoin="round"/>
<path d="M3130.85 930.75C3130.85 950.814 3115.43 966.985 3101.06 980.91C3086.54 994.985 3071.87 1009.06 3054.5 1019.09C3037.13 1029.42 3016.47 1035.11 2996.71 1031.22C2981.14 1028.08 2967.37 1019.09 2952.4 1015.05C2933.54 1009.81 2913.48 1012.05 2894.16 1014.45L2811.23 1024.33C2808.23 1024.63 2805.39 1024.93 2802.39 1025.38" stroke="#231F20" stroke-width="23" stroke-linecap="round" stroke-linejoin="round"/>
<path d="M2794.18 1024.03C2794.18 1024.03 2807.05 1025.83 2807.35 1025.98C2873.23 1049.04 2915.44 1111.33 2943.29 1175.11C2971.28 1239.2 2979.97 1309.87 2985.8 1379.5C2997.48 1521.74 2994.79 1675.96 2911.1 1791.56C2899.42 1807.58 2885.65 1823.15 2867.09 1830.19C2848.52 1836.92 2824.42 1832.13 2814.84 1814.91C2809.9 1806.08 2809.15 1795.75 2809.75 1785.57C2810.05 1773.44 2811.7 1761.46 2814.54 1749.63C2816.64 1740.35 2819.48 1731.36 2822.92 1722.68" stroke="#231F20" stroke-width="23" stroke-linecap="round" stroke-linejoin="round"/>
<path d="M2791.36 1581.64C2791.36 1581.64 2791.06 1582.08 2790.91 1582.23C2771 1605.44 2760.82 1636.89 2763.37 1667.28C2765.91 1698.13 2781.18 1727.77 2805.13 1747.39" stroke="#231F20" stroke-width="23" stroke-linecap="round" stroke-linejoin="round"/>
<path d="M2740.46 1420.67C2740.46 1420.67 2740.31 1422.16 2740.31 1422.76C2737.46 1462.14 2734.92 1501.52 2739.11 1540.75C2740.46 1552.88 2742.7 1565.76 2751.84 1573.69C2761.87 1582.83 2776.99 1582.68 2790.61 1581.78" stroke="#231F20" stroke-width="23" stroke-linecap="round" stroke-linejoin="round"/>
<path d="M2677.28 1323.2C2677.28 1324.1 2677.13 1325 2677.13 1325.89C2676.68 1339.97 2676.08 1354.04 2678.47 1367.97C2680.72 1382.64 2686.26 1397.32 2696.59 1408.1C2706.92 1419.03 2722.19 1425.61 2736.86 1422.77" stroke="#231F20" stroke-width="23" stroke-linecap="round" stroke-linejoin="round"/>
<path d="M2595.65 1274.68C2595.8 1275.88 2595.95 1276.78 2596.09 1277.98C2597.14 1283.96 2598.19 1289.95 2599.24 1295.79C2599.84 1299.54 2600.59 1303.58 2602.23 1307.17C2604.33 1312.26 2608.22 1316.61 2611.81 1320.95C2617.5 1327.24 2623.34 1333.82 2631.28 1336.82C2634.87 1338.17 2638.76 1338.62 2642.65 1338.47C2653.58 1338.47 2664.51 1333.53 2672 1325.59" stroke="#231F20" stroke-width="23" stroke-linecap="round" stroke-linejoin="round"/>
<path d="M2544.78 1249.38C2544.78 1249.38 2544.93 1249.83 2544.93 1249.98C2546.58 1258.06 2549.87 1265.85 2554.21 1272.59C2557.06 1277.08 2560.65 1281.12 2565.29 1283.22C2574.12 1286.96 2584.15 1282.92 2592.54 1278.58" stroke="#231F20" stroke-width="23" stroke-linecap="round" stroke-linejoin="round"/>
<path d="M2541.02 1259.7C2536.08 1272.28 2529.34 1284.11 2521.1 1294.89" stroke="#231F20" stroke-width="23" stroke-linecap="round" stroke-linejoin="round"/>
<path d="M2544.78 1249.53C2543.73 1252.82 2542.68 1255.97 2541.19 1259.11" stroke="#231F20" stroke-width="23" stroke-linecap="round" stroke-linejoin="round"/>
<path d="M2519.47 1295.19C2519.47 1295.19 2520.36 1295.49 2520.81 1295.64C2558.24 1307.62 2589.38 1335.77 2610.34 1369.16C2631.6 1403.15 2642.98 1442.23 2649.86 1481.46C2675.01 1625.35 2640.43 1773.89 2582.94 1908.19C2512.58 2072.45 2408.38 2220.68 2286.82 2351.85C2270.95 2369.07 2253.89 2386.59 2232.03 2395.42C2210.32 2404.4 2182.33 2402.16 2167.06 2384.49C2144.75 2358.74 2159.72 2319.06 2175.44 2288.96" stroke="#231F20" stroke-width="23" stroke-linecap="round" stroke-linejoin="round"/>
<path d="M2183.07 2089.82C2162.71 2119.77 2148.19 2153.46 2140.11 2188.65C2135.91 2207.06 2133.82 2226.23 2138.76 2244.5C2143.7 2262.61 2157.32 2279.23 2175.44 2283.43" stroke="#231F20" stroke-width="23" stroke-linecap="round" stroke-linejoin="round"/>
<path d="M2245.92 1881.39C2218.38 1902.96 2206.25 1937.99 2195.32 1971.08C2185.89 1999.53 2176.46 2028.13 2173.01 2057.93C2172.12 2065.56 2171.82 2073.5 2175.26 2080.09C2176.91 2083.38 2179.75 2086.23 2183.2 2087.87C2186.49 2089.67 2190.38 2090.12 2193.82 2088.77" stroke="#231F20" stroke-width="23" stroke-linecap="round" stroke-linejoin="round"/>
<path d="M2279.64 1746.03C2278.29 1744.54 2276.34 1744.68 2274.55 1745.58C2272.75 1746.18 2270.96 1747.53 2269.76 1749.03C2244.76 1777.78 2240.12 1818.5 2238.32 1856.68C2238.17 1861.33 2238.02 1866.12 2239.37 1870.76C2240.71 1874.8 2243.41 1878.39 2247 1880.04C2247.45 1880.34 2248.05 1880.49 2248.5 1880.64" stroke="#231F20" stroke-width="23" stroke-linecap="round" stroke-linejoin="round"/>
<path d="M2259.72 1670.87C2259.27 1671.92 2258.82 1672.82 2258.52 1673.87C2248.94 1697.97 2255.53 1727.62 2274.39 1745.59" stroke="#231F20" stroke-width="23" stroke-linecap="round" stroke-linejoin="round"/>
<path d="M2261.09 1670.72C2260.19 1671.77 2259.44 1672.82 2258.55 1673.87C2216.48 1729.87 2163.18 1777.18 2102.85 1812.52C2093.27 1818.36 2082.94 1823.75 2071.86 1824.8C2067.52 1825.1 2062.88 1824.65 2058.84 1823.3C2052.25 1821.35 2046.41 1817.31 2043.27 1811.17" stroke="#231F20" stroke-width="23" stroke-linecap="round" stroke-linejoin="round"/>
<path d="M2036.38 1801.44C2013.32 1858.49 1952.99 1889.78 1895.65 1912.39C1836.52 1935.6 1775.59 1954.47 1713.76 1968.69C1695.19 1972.88 1676.33 1976.78 1657.47 1974.08C1638.75 1971.53 1620.04 1961.35 1612.11 1944.28" stroke="#231F20" stroke-width="23" stroke-linecap="round" stroke-linejoin="round"/>
<path d="M1608.66 1938.6C1608.36 1940.25 1608.06 1941.75 1607.61 1943.39C1607.46 1943.99 1607.31 1944.59 1607.16 1945.19C1603.87 1960.61 1599.23 1976.33 1588.15 1987.26C1576.62 1998.79 1559.85 2003.43 1543.83 2007.03C1451.76 2026.49 1354.75 2022.15 1264.93 1994.3" stroke="#231F20" stroke-width="23" stroke-linecap="round" stroke-linejoin="round"/>
<path d="M1258.32 1993.55C1162.06 2119.62 1058.47 2251.39 910.405 2308.59C872.229 2323.26 831.958 2332.54 791.388 2339.43C644.225 2363.84 491.524 2354.25 348.254 2311.73C271.904 2289.27 197.499 2256.78 134.472 2208.27C117.705 2195.39 101.237 2180.56 93.3028 2161.1C85.3683 2141.34 88.5122 2115.88 105.579 2103.45" stroke="#231F20" stroke-width="23" stroke-linecap="round" stroke-linejoin="round"/>
<path d="M194.667 2026.79C190.625 2025.89 186.883 2025.59 182.99 2025.59C159.786 2025.59 137.03 2038.32 121.461 2055.84C114.574 2063.62 108.736 2072.75 106.789 2082.94C105.592 2089.52 106.34 2096.41 108.436 2102.85C110.083 2107.04 112.179 2110.94 115.023 2114.53" stroke="#231F20" stroke-width="23" stroke-linecap="round" stroke-linejoin="round"/>
<path d="M307.235 1946.83C306.187 1946.68 305.288 1946.53 304.091 1946.53C275.497 1943.39 246.753 1954.92 222.5 1971.09C217.71 1974.38 212.919 1977.82 209.326 1982.32C199.895 1993.55 198.398 2009.27 197.35 2023.79" stroke="#231F20" stroke-width="23" stroke-linecap="round" stroke-linejoin="round"/>
<path d="M880.472 1839.77C879.573 1839.62 878.974 1839.33 878.226 1839.18C843.644 1829.59 805.768 1821.36 772.682 1835.43C737.202 1850.7 712.8 1889.64 674.474 1893.83C642.138 1897.42 611.747 1874.66 579.261 1877.06C558.451 1878.56 538.84 1890.68 518.031 1889.34C494.227 1887.84 468.178 1869.27 448.566 1883.2C438.087 1890.53 434.494 1904.76 424.164 1912.39C406.349 1925.87 381.498 1912.39 359.191 1911.5C336.286 1910.3 313.531 1924.52 304.398 1945.63" stroke="#231F20" stroke-width="23" stroke-linecap="round" stroke-linejoin="round"/>
<path d="M2251.62 925.66C2240.24 887.479 2245.03 845.703 2259.41 808.57C2273.78 771.287 2297.43 738.496 2324.08 708.849C2354.17 675.459 2389.05 645.213 2430.22 627.695C2432.92 626.497 2435.61 625.449 2438.45 624.401" stroke="#231F20" stroke-width="23" stroke-linecap="round" stroke-linejoin="round"/>
<path d="M2444.44 926.556C2401.03 903.198 2348.33 897.807 2300.87 911.732C2289.35 915.176 2277.97 919.668 2268.39 926.855C2265.84 928.652 2263.6 930.449 2261.2 932.695C2254.46 938.834 2248.63 946.171 2243.39 953.657C2210.45 1000.22 2194.73 1057.42 2192.34 1114.32C2189.94 1171.22 2200.42 1228.26 2216.14 1283.07" stroke="#231F20" stroke-width="23" stroke-linecap="round" stroke-linejoin="round"/>
<path d="M2403.9 1363.62C2407.35 1358.23 2405.4 1350.45 2401.06 1345.5L2400.61 1345.06C2396.12 1340.41 2390.13 1337.57 2384.44 1335.32C2332.34 1312.86 2279.05 1289.95 2222.31 1285.61" stroke="#231F20" stroke-width="23" stroke-linecap="round" stroke-linejoin="round"/>
<path d="M2058.97 1822.69C2058.07 1815.5 2052.23 1810.26 2046.99 1805.17C2044.44 1802.93 2042.2 1800.38 2040.1 1797.84C2015.1 1770.73 1999.53 1735.7 1984.56 1701.86C1976.93 1684.49 1969.29 1667.27 1961.51 1650.05C1952.97 1630.29 1944.14 1609.62 1946.39 1588.36C1946.99 1582.97 1948.33 1577.58 1950.13 1572.49C1955.82 1557.22 1966.15 1543.59 1976.48 1530.42C1989.05 1514.24 2001.48 1497.92 2014.05 1481.75C2034.26 1455.7 2054.48 1429.8 2076.78 1405.84C2119.15 1360.47 2168.85 1323.04 2218.4 1286.05C2219.3 1285.45 2219.9 1284.71 2220.65 1284.26C2220.8 1284.11 2221.1 1283.96 2221.25 1283.81" stroke="#231F20" stroke-width="23" stroke-linecap="round" stroke-linejoin="round"/>
<path d="M2031.12 517.038C1983.97 600.738 1981.87 701.807 1980.97 797.934" stroke="#231F20" stroke-width="23" stroke-linecap="round" stroke-linejoin="round"/>
<path d="M1793.7 924.908C1793.7 924.908 1795.19 924.309 1795.79 923.71C1861.81 889.871 1924.39 848.844 1981.73 801.529" stroke="#231F20" stroke-width="23" stroke-linecap="round" stroke-linejoin="round"/>
<path d="M1518.08 585.471C1501.31 665.877 1499.37 749.277 1512.69 830.431" stroke="#231F20" stroke-width="23" stroke-linecap="round" stroke-linejoin="round"/>
<path d="M1792.34 925.063C1696.53 903.651 1608.35 855.887 1513.29 830.732" stroke="#231F20" stroke-width="23" stroke-linecap="round" stroke-linejoin="round"/>
<path d="M1373.14 1057.58C1422.69 985.558 1468.35 911.142 1509.97 834.329" stroke="#231F20" stroke-width="23" stroke-linecap="round" stroke-linejoin="round"/>
<path d="M1372.26 1057.43C1307.44 1047.84 1242.61 1036.91 1178.09 1024.64C1153.39 1019.84 1127.79 1014.6 1107.28 999.93C1105.18 998.433 1103.09 996.786 1101.14 995.138C1085.72 982.112 1074.49 964.294 1063.57 947.075C1049.19 924.166 1034.82 901.407 1020.3 878.647" stroke="#231F20" stroke-width="23" stroke-linecap="round" stroke-linejoin="round"/>
<path d="M885.403 1843.22C883.307 1842.17 881.061 1836.34 879.265 1834.84C873.576 1830.35 869.534 1823.91 868.187 1816.72C866.24 1805.79 869.235 1792.01 860.252 1785.58C856.959 1783.03 852.617 1782.43 848.575 1781.98C833.754 1780.19 818.634 1779.74 804.112 1775.69C780.308 1768.96 759.799 1753.08 743.63 1734.22C727.462 1715.35 715.186 1693.64 703.06 1671.93" stroke="#231F20" stroke-width="23" stroke-linecap="round" stroke-linejoin="round"/>
<path d="M1372.99 1057.12C1372.99 1057.12 1373.14 1057.42 1373.14 1057.57C1385.72 1086.77 1393.95 1117.32 1402.48 1147.86C1452.34 1330.98 1502.49 1513.8 1552.34 1696.93C1552.64 1697.97 1552.79 1699.02 1553.24 1700.07" stroke="#231F20" stroke-width="23" stroke-linecap="round" stroke-linejoin="round"/>
<path d="M1097.7 999.628C1105.33 1014 1105.93 1030.92 1106.23 1047.09C1110.72 1243.09 1115.21 1439.24 1119.4 1635.24V1636.29" stroke="#231F20" stroke-width="23" stroke-linecap="round" stroke-linejoin="round"/>
<path d="M1227.5 1727.78C1208.79 1682.71 1166.27 1650.37 1119.56 1635.25C1119.26 1635.1 1118.96 1635.1 1118.51 1634.95C1071.66 1620.27 1021.06 1621.32 972.4 1628.66" stroke="#231F20" stroke-width="23" stroke-linecap="round" stroke-linejoin="round"/>
<path d="M972.219 1630.3C964.435 1636.59 958.746 1644.82 953.356 1653.21C923.864 1696.78 894.671 1740.5 865.179 1784.07" stroke="#231F20" stroke-width="23" stroke-linecap="round" stroke-linejoin="round"/>
<path d="M970.15 1627.45C952.634 1597.66 934.969 1567.86 917.154 1538.06C903.979 1515.45 889.458 1491.94 866.702 1478.77C828.078 1456.76 780.321 1471.58 736.008 1471.13C722.085 1471.13 707.414 1469.49 694.539 1474.88C678.52 1481.76 668.34 1498.83 665.795 1516.2C662.951 1533.57 666.394 1551.24 670.586 1568.46C678.371 1601.1 688.7 1633.14 701.426 1664.29C701.875 1665.93 702.623 1667.43 703.222 1669.08" stroke="#231F20" stroke-width="23" stroke-linecap="round" stroke-linejoin="round"/>
<path d="M1796.39 924.607C1810.46 1052.63 1824.53 1180.65 1852.23 1306.27C1859.11 1337.87 1866.9 1369.46 1875.73 1400.75C1891.9 1459.45 1911.21 1517.69 1936.66 1573.24C1937.26 1574.59 1937.86 1575.94 1938.46 1577.29" stroke="#231F20" stroke-width="23" stroke-linecap="round" stroke-linejoin="round"/>
<path d="M1552.77 1703.36C1552.77 1703.36 1553.07 1703.21 1553.22 1703.07C1615.35 1660.84 1679.12 1617.72 1752.33 1600.5C1812.36 1586.42 1875.99 1590.47 1935.42 1573.55" stroke="#231F20" stroke-width="23" stroke-linecap="round" stroke-linejoin="round"/>
<path d="M1553.11 1701.12C1553.11 1701.12 1553.26 1702.32 1553.41 1702.92C1563.74 1785.12 1581.86 1866.27 1607.16 1945.03C1607.16 1945.18 1607.31 1945.48 1607.31 1945.63" stroke="#231F20" stroke-width="23" stroke-linecap="round" stroke-linejoin="round"/>
<path d="M1557.28 1697.68C1555.63 1697.38 1553.84 1697.08 1552.19 1696.78C1505.78 1688.55 1459.52 1680.61 1413.11 1672.67C1399.04 1670.13 1384.97 1667.73 1370.74 1668.33C1348.59 1669.38 1327.48 1677.91 1307.42 1686.9C1285.26 1696.63 1263.4 1707.11 1242 1718.19C1237.5 1720.44 1232.86 1722.98 1230.02 1727.18C1229.72 1727.63 1229.42 1728.37 1229.12 1728.82C1227.03 1732.12 1226.13 1736.16 1225.68 1739.9C1218.34 1780.18 1213.1 1820.46 1209.81 1861.04C1208.91 1870.92 1208.16 1880.8 1207.71 1890.53C1207.11 1902.06 1206.52 1913.74 1208.31 1925.12C1212.65 1954.32 1232.12 1980.37 1258.31 1993.25C1260.11 1994.3 1261.91 1995.05 1264 1995.94C1264.3 1995.94 1264.6 1996.09 1265.05 1996.24" stroke="#231F20" stroke-width="23" stroke-linecap="round" stroke-linejoin="round"/>
<path d="M1205.47 1860.74C1202.32 1877.51 1198.73 1894.73 1188.1 1907.91C1175.23 1924.08 1153.67 1931.56 1133.16 1931.86C1112.5 1932.16 1092.14 1926.62 1072.23 1920.78C1007.41 1901.77 941.834 1880.5 885.395 1843.22" stroke="#231F20" stroke-width="23" stroke-linecap="round" stroke-linejoin="round"/>
<path d="M2807.94 1024.63C2779.95 1024.18 2754.5 1018.34 2727.25 1024.48C2684.58 1034.36 2646.41 1060.71 2618.11 1094.1C2589.82 1127.64 2570.81 1168.22 2557.63 1210.29C2553.44 1223.47 2550 1237.1 2544.91 1249.97C2543.71 1253.12 2542.66 1256.11 2541.16 1259.11C2541.16 1259.26 2541.01 1259.41 2541.01 1259.56C2533.68 1275.43 2523.2 1290.4 2508.08 1299.23C2488.92 1310.61 2465.26 1310.91 2443.1 1308.37" stroke="#231F20" stroke-width="23" stroke-linecap="round" stroke-linejoin="round"/>
<path d="M2832.96 723.217C2842.4 727.709 2852.87 730.104 2862.46 734.147C2889.4 745.227 2911.26 767.986 2921.14 795.387" stroke="#231F20" stroke-width="23" stroke-linecap="round" stroke-linejoin="round"/>
<path d="M2978.6 565.556C2970.52 541.15 2950.16 521.236 2925.46 513.749C2900.9 506.113 2872.61 511.653 2852.85 527.974C2838.63 539.952 2829.04 556.422 2821.41 573.342" stroke="#231F20" stroke-width="23" stroke-linecap="round" stroke-linejoin="round"/>
</svg>
